STARTFONT 2.1
FONT -Monotype-Rockwell-Medium-I-Normal--12-120-72-72-P-59-ISO8859-1
SIZE 12 72 72
FONTBOUNDINGBOX 18 16 -4 -3

STARTPROPERTIES 22
FOUNDRY "Monotype"
FAMILY_NAME "Rockwell"
WEIGHT_NAME "Medium"
SLANT "I"
SETWIDTH_NAME "Normal"
ADD_STYLE_NAME ""
PIXEL_SIZE 12
POINT_SIZE 120
RESOLUTION_X 72
RESOLUTION_Y 72
SPACING "P"
AVERAGE_WIDTH 59
CHARSET_REGISTRY "ISO8859"
CHARSET_ENCODING "1"
FULL_NAME "Rockwell-Italic"
COPYRIGHT "Copyright (c) 1991 The Monotype Corporation plc."
WEIGHT 10
X_HEIGHT 6
QUAD_WIDTH 7
DEFAULT_CHAR 32
FONT_DESCENT 3
FONT_ASCENT 11
ENDPROPERTIES

CHARS 190

STARTCHAR space
ENCODING 32
SWIDTH 250 0
DWIDTH 3 0
BBX 1 1 0 0
BITMAP
00
ENDCHAR

STARTCHAR exclam
ENCODING 33
SWIDTH 281 0
DWIDTH 3 0
BBX 3 9 1 0
BITMAP
20
20
60
60
40
40
40
00
C0
ENDCHAR

STARTCHAR quotedbl
ENCODING 34
SWIDTH 417 0
DWIDTH 5 0
BBX 4 3 2 6
BITMAP
D0
A0
A0
ENDCHAR

STARTCHAR numbersign
ENCODING 35
SWIDTH 668 0
DWIDTH 8 0
BBX 7 9 1 0
BITMAP
24
24
24
FE
24
48
FE
48
48
ENDCHAR

STARTCHAR dollar
ENCODING 36
SWIDTH 479 0
DWIDTH 6 0
BBX 6 10 0 -1
BITMAP
38
50
54
70
30
28
A8
A8
70
40
ENDCHAR

STARTCHAR percent
ENCODING 37
SWIDTH 1000 0
DWIDTH 12 0
BBX 9 9 1 0
BITMAP
6080
9100
9200
A400
EB80
1280
2480
4480
C300
ENDCHAR

STARTCHAR ampersand
ENCODING 38
SWIDTH 625 0
DWIDTH 8 0
BBX 7 9 1 0
BITMAP
18
28
2C
38
70
D2
8C
88
76
ENDCHAR

STARTCHAR quoteright
ENCODING 39
SWIDTH 281 0
DWIDTH 3 0
BBX 2 4 1 5
BITMAP
40
C0
40
80
ENDCHAR

STARTCHAR parenleft
ENCODING 40
SWIDTH 375 0
DWIDTH 5 0
BBX 5 12 1 -3
BITMAP
18
20
40
40
C0
80
80
80
80
80
40
40
ENDCHAR

STARTCHAR parenright
ENCODING 41
SWIDTH 375 0
DWIDTH 5 0
BBX 5 12 0 -3
BITMAP
20
10
10
10
08
08
18
10
10
20
60
80
ENDCHAR

STARTCHAR asterisk
ENCODING 42
SWIDTH 521 0
DWIDTH 6 0
BBX 5 5 1 3
BITMAP
10
D8
20
50
90
ENDCHAR

STARTCHAR plus
ENCODING 43
SWIDTH 667 0
DWIDTH 8 0
BBX 7 7 0 1
BITMAP
10
10
10
FE
10
10
10
ENDCHAR

STARTCHAR comma
ENCODING 44
SWIDTH 281 0
DWIDTH 3 0
BBX 2 4 0 -2
BITMAP
40
C0
40
80
ENDCHAR

STARTCHAR minus
ENCODING 45
SWIDTH 667 0
DWIDTH 8 0
BBX 6 1 1 3
BITMAP
FC
ENDCHAR

STARTCHAR period
ENCODING 46
SWIDTH 281 0
DWIDTH 3 0
BBX 2 1 1 0
BITMAP
C0
ENDCHAR

STARTCHAR slash
ENCODING 47
SWIDTH 438 0
DWIDTH 5 0
BBX 6 12 0 -3
BITMAP
04
08
08
08
10
10
20
20
40
40
40
80
ENDCHAR

STARTCHAR zero
ENCODING 48
SWIDTH 531 0
DWIDTH 6 0
BBX 6 9 1 0
BITMAP
38
68
44
C4
88
88
88
90
60
ENDCHAR

STARTCHAR one
ENCODING 49
SWIDTH 531 0
DWIDTH 6 0
BBX 4 9 1 0
BITMAP
30
10
20
20
20
20
60
40
E0
ENDCHAR

STARTCHAR two
ENCODING 50
SWIDTH 531 0
DWIDTH 6 0
BBX 6 9 0 0
BITMAP
38
24
44
08
18
20
48
C8
F8
ENDCHAR

STARTCHAR three
ENCODING 51
SWIDTH 531 0
DWIDTH 6 0
BBX 6 9 1 0
BITMAP
38
44
04
08
30
08
88
88
70
ENDCHAR

STARTCHAR four
ENCODING 52
SWIDTH 531 0
DWIDTH 6 0
BBX 6 9 1 0
BITMAP
0C
18
18
28
48
90
FC
10
38
ENDCHAR

STARTCHAR five
ENCODING 53
SWIDTH 531 0
DWIDTH 6 0
BBX 6 9 1 0
BITMAP
3C
6C
40
70
48
08
88
98
70
ENDCHAR

STARTCHAR six
ENCODING 54
SWIDTH 531 0
DWIDTH 6 0
BBX 5 9 1 0
BITMAP
38
68
48
40
F0
98
88
90
70
ENDCHAR

STARTCHAR seven
ENCODING 55
SWIDTH 531 0
DWIDTH 6 0
BBX 6 9 1 0
BITMAP
7C
88
18
10
20
20
20
40
E0
ENDCHAR

STARTCHAR eight
ENCODING 56
SWIDTH 531 0
DWIDTH 6 0
BBX 6 9 1 0
BITMAP
38
6C
44
48
70
C8
88
98
70
ENDCHAR

STARTCHAR nine
ENCODING 57
SWIDTH 531 0
DWIDTH 6 0
BBX 6 9 1 0
BITMAP
38
48
48
4C
48
38
88
90
60
ENDCHAR

STARTCHAR colon
ENCODING 58
SWIDTH 281 0
DWIDTH 3 0
BBX 3 6 1 0
BITMAP
60
00
00
00
00
C0
ENDCHAR

STARTCHAR semicolon
ENCODING 59
SWIDTH 281 0
DWIDTH 3 0
BBX 3 8 0 -2
BITMAP
60
00
00
00
00
C0
40
80
ENDCHAR

STARTCHAR less
ENCODING 60
SWIDTH 667 0
DWIDTH 8 0
BBX 6 6 1 1
BITMAP
04
18
E0
E0
18
04
ENDCHAR

STARTCHAR equal
ENCODING 61
SWIDTH 667 0
DWIDTH 8 0
BBX 6 4 1 2
BITMAP
FC
00
00
FC
ENDCHAR

STARTCHAR greater
ENCODING 62
SWIDTH 667 0
DWIDTH 8 0
BBX 6 6 1 1
BITMAP
80
70
0C
0C
70
80
ENDCHAR

STARTCHAR question
ENCODING 63
SWIDTH 458 0
DWIDTH 5 0
BBX 5 9 1 0
BITMAP
70
C8
08
18
70
40
40
00
C0
ENDCHAR

STARTCHAR at
ENCODING 64
SWIDTH 1010 0
DWIDTH 12 0
BBX 11 12 1 -3
BITMAP
1F00
30C0
4F40
5320
9120
A120
A240
B240
9FA0
4040
2080
1F00
ENDCHAR

STARTCHAR A
ENCODING 65
SWIDTH 646 0
DWIDTH 8 0
BBX 8 9 0 0
BITMAP
0F
0A
0A
12
12
3E
22
42
E7
ENDCHAR

STARTCHAR B
ENCODING 66
SWIDTH 563 0
DWIDTH 7 0
BBX 7 9 0 0
BITMAP
3C
22
22
24
38
24
44
44
F8
ENDCHAR

STARTCHAR C
ENCODING 67
SWIDTH 719 0
DWIDTH 9 0
BBX 9 9 1 0
BITMAP
1E80
2100
4000
C000
8000
8000
8200
4600
3800
ENDCHAR

STARTCHAR D
ENCODING 68
SWIDTH 708 0
DWIDTH 8 0
BBX 8 9 0 0
BITMAP
3E
23
21
21
21
21
43
46
FC
ENDCHAR

STARTCHAR E
ENCODING 69
SWIDTH 573 0
DWIDTH 7 0
BBX 8 9 0 0
BITMAP
3F
22
22
20
3C
20
46
44
FC
ENDCHAR

STARTCHAR F
ENCODING 70
SWIDTH 521 0
DWIDTH 6 0
BBX 8 9 0 0
BITMAP
3F
22
22
20
3C
20
40
40
E0
ENDCHAR

STARTCHAR G
ENCODING 71
SWIDTH 781 0
DWIDTH 9 0
BBX 9 9 1 0
BITMAP
1E80
2180
4000
C000
8000
8700
8100
4200
3C00
ENDCHAR

STARTCHAR H
ENCODING 72
SWIDTH 677 0
DWIDTH 8 0
BBX 9 9 0 0
BITMAP
3B80
2100
2100
2100
3E00
2200
4200
4200
E600
ENDCHAR

STARTCHAR I
ENCODING 73
SWIDTH 292 0
DWIDTH 4 0
BBX 4 9 0 0
BITMAP
30
20
20
20
20
60
40
40
E0
ENDCHAR

STARTCHAR J
ENCODING 74
SWIDTH 292 0
DWIDTH 4 0
BBX 6 12 0 -3
BITMAP
1C
08
08
10
10
10
10
10
20
20
20
C0
ENDCHAR

STARTCHAR K
ENCODING 75
SWIDTH 594 0
DWIDTH 7 0
BBX 8 9 0 0
BITMAP
3F
22
24
28
30
28
48
44
EE
ENDCHAR

STARTCHAR L
ENCODING 76
SWIDTH 490 0
DWIDTH 6 0
BBX 6 9 0 0
BITMAP
38
30
20
20
20
20
44
44
FC
ENDCHAR

STARTCHAR M
ENCODING 77
SWIDTH 833 0
DWIDTH 10 0
BBX 11 9 0 0
BITMAP
30E0
30C0
2940
2BC0
2A80
4E80
4C80
4880
E980
ENDCHAR

STARTCHAR N
ENCODING 78
SWIDTH 698 0
DWIDTH 8 0
BBX 10 9 0 0
BITMAP
31C0
2900
2900
2900
2900
2500
4600
4600
E200
ENDCHAR

STARTCHAR O
ENCODING 79
SWIDTH 781 0
DWIDTH 9 0
BBX 8 9 1 0
BITMAP
1E
23
41
C1
81
81
83
46
38
ENDCHAR

STARTCHAR P
ENCODING 80
SWIDTH 542 0
DWIDTH 7 0
BBX 7 9 0 0
BITMAP
3C
22
22
22
26
3C
40
40
E0
ENDCHAR

STARTCHAR Q
ENCODING 81
SWIDTH 781 0
DWIDTH 9 0
BBX 8 10 1 -1
BITMAP
1E
23
41
C1
81
81
83
C6
7C
4E
ENDCHAR

STARTCHAR R
ENCODING 82
SWIDTH 583 0
DWIDTH 7 0
BBX 7 9 0 0
BITMAP
3C
22
22
22
3C
28
48
44
E6
ENDCHAR

STARTCHAR S
ENCODING 83
SWIDTH 521 0
DWIDTH 6 0
BBX 7 9 0 0
BITMAP
3A
24
40
20
10
08
08
88
F0
ENDCHAR

STARTCHAR T
ENCODING 84
SWIDTH 583 0
DWIDTH 7 0
BBX 7 9 1 0
BITMAP
7E
92
92
10
10
20
20
20
70
ENDCHAR

STARTCHAR U
ENCODING 85
SWIDTH 635 0
DWIDTH 8 0
BBX 8 9 1 0
BITMAP
E7
44
44
44
44
84
88
88
70
ENDCHAR

STARTCHAR V
ENCODING 86
SWIDTH 677 0
DWIDTH 8 0
BBX 8 9 1 0
BITMAP
E7
42
44
4C
48
50
50
60
60
ENDCHAR

STARTCHAR W
ENCODING 87
SWIDTH 990 0
DWIDTH 12 0
BBX 12 9 1 0
BITMAP
EF70
4620
4A40
4A40
5280
5280
6300
6300
4200
ENDCHAR

STARTCHAR X
ENCODING 88
SWIDTH 635 0
DWIDTH 8 0
BBX 9 9 0 0
BITMAP
3B80
1200
1600
0C00
0800
1800
3400
4400
EE00
ENDCHAR

STARTCHAR Y
ENCODING 89
SWIDTH 573 0
DWIDTH 7 0
BBX 7 9 1 0
BITMAP
EE
44
48
30
30
20
20
20
E0
ENDCHAR

STARTCHAR Z
ENCODING 90
SWIDTH 563 0
DWIDTH 7 0
BBX 7 9 0 0
BITMAP
3E
26
64
08
10
20
64
44
FC
ENDCHAR

STARTCHAR bracketleft
ENCODING 91
SWIDTH 313 0
DWIDTH 4 0
BBX 5 12 0 -3
BITMAP
38
20
20
20
20
40
40
40
40
40
80
E0
ENDCHAR

STARTCHAR backslash
ENCODING 92
SWIDTH 438 0
DWIDTH 7 0
BBX 2 9 3 0
BITMAP
80
80
80
80
40
40
40
40
40
ENDCHAR

STARTCHAR bracketright
ENCODING 93
SWIDTH 313 0
DWIDTH 4 0
BBX 5 12 0 -3
BITMAP
38
08
10
10
10
10
10
20
20
20
20
E0
ENDCHAR

STARTCHAR asciicircum
ENCODING 94
SWIDTH 427 0
DWIDTH 5 0
BBX 5 4 0 5
BITMAP
20
70
50
88
ENDCHAR

STARTCHAR underscore
ENCODING 95
SWIDTH 500 0
DWIDTH 6 0
BBX 6 1 0 -3
BITMAP
FC
ENDCHAR

STARTCHAR quoteleft
ENCODING 96
SWIDTH 281 0
DWIDTH 3 0
BBX 2 4 2 5
BITMAP
40
40
C0
C0
ENDCHAR

STARTCHAR a
ENCODING 97
SWIDTH 531 0
DWIDTH 6 0
BBX 5 6 1 0
BITMAP
78
08
78
88
98
78
ENDCHAR

STARTCHAR b
ENCODING 98
SWIDTH 615 0
DWIDTH 7 0
BBX 7 9 0 0
BITMAP
30
20
20
3C
22
62
42
66
FC
ENDCHAR

STARTCHAR c
ENCODING 99
SWIDTH 500 0
DWIDTH 6 0
BBX 6 6 1 0
BITMAP
3C
48
80
80
88
70
ENDCHAR

STARTCHAR d
ENCODING 100
SWIDTH 604 0
DWIDTH 7 0
BBX 7 9 1 0
BITMAP
06
02
04
3C
4C
84
84
88
7C
ENDCHAR

STARTCHAR e
ENCODING 101
SWIDTH 552 0
DWIDTH 7 0
BBX 6 6 1 0
BITMAP
38
44
FC
80
88
70
ENDCHAR

STARTCHAR f
ENCODING 102
SWIDTH 281 0
DWIDTH 3 0
BBX 5 9 0 0
BITMAP
18
20
20
70
20
40
40
40
E0
ENDCHAR

STARTCHAR g
ENCODING 103
SWIDTH 604 0
DWIDTH 7 0
BBX 8 9 0 -3
BITMAP
3B
66
44
44
4C
74
0C
88
70
ENDCHAR

STARTCHAR h
ENCODING 104
SWIDTH 552 0
DWIDTH 7 0
BBX 6 9 0 0
BITMAP
30
20
20
3C
24
64
44
48
EC
ENDCHAR

STARTCHAR i
ENCODING 105
SWIDTH 281 0
DWIDTH 3 0
BBX 4 9 0 0
BITMAP
30
00
00
60
20
40
40
40
E0
ENDCHAR

STARTCHAR j
ENCODING 106
SWIDTH 281 0
DWIDTH 3 0
BBX 5 12 0 -3
BITMAP
18
00
00
30
10
10
20
20
20
20
40
C0
ENDCHAR

STARTCHAR k
ENCODING 107
SWIDTH 521 0
DWIDTH 6 0
BBX 7 9 0 0
BITMAP
30
20
20
2E
2C
70
50
58
EC
ENDCHAR

STARTCHAR l
ENCODING 108
SWIDTH 281 0
DWIDTH 3 0
BBX 4 9 0 0
BITMAP
30
20
20
20
20
40
40
40
E0
ENDCHAR

STARTCHAR m
ENCODING 109
SWIDTH 844 0
DWIDTH 10 0
BBX 10 6 0 0
BITMAP
7D80
2680
4480
4480
4880
EDC0
ENDCHAR

STARTCHAR n
ENCODING 110
SWIDTH 552 0
DWIDTH 7 0
BBX 6 6 0 0
BITMAP
7C
24
44
44
48
EC
ENDCHAR

STARTCHAR o
ENCODING 111
SWIDTH 563 0
DWIDTH 7 0
BBX 6 6 1 0
BITMAP
38
4C
84
84
88
70
ENDCHAR

STARTCHAR p
ENCODING 112
SWIDTH 604 0
DWIDTH 7 0
BBX 8 9 0 -3
BITMAP
3E
33
21
23
22
5C
40
40
E0
ENDCHAR

STARTCHAR q
ENCODING 113
SWIDTH 604 0
DWIDTH 7 0
BBX 7 9 1 -3
BITMAP
3E
4C
84
84
88
78
08
08
1C
ENDCHAR

STARTCHAR r
ENCODING 114
SWIDTH 396 0
DWIDTH 5 0
BBX 5 6 0 0
BITMAP
78
20
20
40
40
E0
ENDCHAR

STARTCHAR s
ENCODING 115
SWIDTH 427 0
DWIDTH 5 0
BBX 5 6 0 0
BITMAP
78
48
60
18
88
F0
ENDCHAR

STARTCHAR t
ENCODING 116
SWIDTH 292 0
DWIDTH 4 0
BBX 3 8 1 0
BITMAP
60
40
E0
40
80
80
80
C0
ENDCHAR

STARTCHAR u
ENCODING 117
SWIDTH 552 0
DWIDTH 7 0
BBX 5 6 1 0
BITMAP
D8
48
88
88
90
F8
ENDCHAR

STARTCHAR v
ENCODING 118
SWIDTH 479 0
DWIDTH 6 0
BBX 6 6 1 0
BITMAP
DC
48
50
50
60
40
ENDCHAR

STARTCHAR w
ENCODING 119
SWIDTH 740 0
DWIDTH 9 0
BBX 9 6 1 0
BITMAP
DD80
5900
5A00
6A00
6C00
4C00
ENDCHAR

STARTCHAR x
ENCODING 120
SWIDTH 510 0
DWIDTH 6 0
BBX 7 6 0 0
BITMAP
76
2C
18
30
68
FC
ENDCHAR

STARTCHAR y
ENCODING 121
SWIDTH 510 0
DWIDTH 6 0
BBX 7 9 0 -3
BITMAP
36
24
24
28
30
30
20
60
C0
ENDCHAR

STARTCHAR z
ENCODING 122
SWIDTH 417 0
DWIDTH 5 0
BBX 6 6 0 0
BITMAP
7C
48
10
20
48
F0
ENDCHAR

STARTCHAR braceleft
ENCODING 123
SWIDTH 333 0
DWIDTH 4 0
BBX 5 12 1 -3
BITMAP
18
20
20
20
20
40
C0
40
40
40
C0
40
ENDCHAR

STARTCHAR bar
ENCODING 124
SWIDTH 527 0
DWIDTH 7 0
BBX 3 12 2 -3
BITMAP
20
20
20
20
60
40
40
40
40
C0
80
80
ENDCHAR

STARTCHAR braceright
ENCODING 125
SWIDTH 333 0
DWIDTH 4 0
BBX 5 12 0 -3
BITMAP
30
10
10
10
10
18
20
20
20
20
40
C0
ENDCHAR

STARTCHAR asciitilde
ENCODING 126
SWIDTH 583 0
DWIDTH 7 0
BBX 6 2 1 5
BITMAP
E4
9C
ENDCHAR

STARTCHAR exclamdown
ENCODING 161
SWIDTH 281 0
DWIDTH 3 0
BBX 3 9 0 -3
BITMAP
60
00
40
40
40
40
C0
80
80
ENDCHAR

STARTCHAR cent
ENCODING 162
SWIDTH 500 0
DWIDTH 6 0
BBX 6 12 1 -3
BITMAP
08
08
10
3C
58
A0
A0
A8
F0
40
40
80
ENDCHAR

STARTCHAR sterling
ENCODING 163
SWIDTH 458 0
DWIDTH 5 0
BBX 6 9 0 0
BITMAP
18
24
20
20
78
20
20
E8
F0
ENDCHAR

STARTCHAR currency
ENCODING 164
SWIDTH 667 0
DWIDTH 8 0
BBX 5 6 2 1
BITMAP
F8
D8
88
88
D8
F8
ENDCHAR

STARTCHAR yen
ENCODING 165
SWIDTH 573 0
DWIDTH 7 0
BBX 8 9 0 0
BITMAP
77
26
FF
28
FE
10
10
20
70
ENDCHAR

STARTCHAR brokenbar
ENCODING 166
SWIDTH 527 0
DWIDTH 7 0
BBX 3 12 2 -3
BITMAP
20
20
20
20
20
40
00
00
40
40
80
80
ENDCHAR

STARTCHAR section
ENCODING 167
SWIDTH 448 0
DWIDTH 5 0
BBX 6 12 0 -3
BITMAP
38
44
40
20
58
88
C8
68
30
18
98
70
ENDCHAR

STARTCHAR dieresis
ENCODING 168
SWIDTH 333 0
DWIDTH 4 0
BBX 3 1 2 8
BITMAP
A0
ENDCHAR

STARTCHAR copyright
ENCODING 169
SWIDTH 740 0
DWIDTH 9 0
BBX 9 9 0 0
BITMAP
3E00
6300
DD80
A280
A080
A280
DD80
6300
3E00
ENDCHAR

STARTCHAR ordfeminine
ENCODING 170
SWIDTH 344 0
DWIDTH 4 0
BBX 3 4 1 5
BITMAP
60
E0
A0
E0
ENDCHAR

STARTCHAR guillemotleft
ENCODING 171
SWIDTH 458 0
DWIDTH 5 0
BBX 6 6 0 0
BITMAP
48
28
24
2C
48
F0
ENDCHAR

STARTCHAR logicalnot
ENCODING 172
SWIDTH 667 0
DWIDTH 8 0
BBX 7 4 0 2
BITMAP
FE
02
02
02
ENDCHAR

STARTCHAR hyphen
ENCODING 173
SWIDTH 385 0
DWIDTH 5 0
BBX 4 1 1 2
BITMAP
F0
ENDCHAR

STARTCHAR registered
ENCODING 174
SWIDTH 740 0
DWIDTH 9 0
BBX 10 9 0 0
BITMAP
1E00
6180
5E80
9240
9E40
9440
5280
6180
1E00
ENDCHAR

STARTCHAR macron
ENCODING 175
SWIDTH 333 0
DWIDTH 4 0
BBX 4 1 1 7
BITMAP
F0
ENDCHAR

STARTCHAR degree
ENCODING 176
SWIDTH 396 0
DWIDTH 5 0
BBX 4 4 2 5
BITMAP
60
90
90
60
ENDCHAR

STARTCHAR plusminus
ENCODING 177
SWIDTH 667 0
DWIDTH 8 0
BBX 7 9 0 0
BITMAP
10
10
10
FE
10
10
10
00
FE
ENDCHAR

STARTCHAR twosuperior
ENCODING 178
SWIDTH 323 0
DWIDTH 4 0
BBX 3 5 -3 4
BITMAP
60
60
60
E0
E0
ENDCHAR

STARTCHAR threesuperior
ENCODING 179
SWIDTH 323 0
DWIDTH 4 0
BBX 3 5 -3 4
BITMAP
E0
20
60
20
E0
ENDCHAR

STARTCHAR acute
ENCODING 180
SWIDTH 333 0
DWIDTH 4 0
BBX 3 2 2 7
BITMAP
60
80
ENDCHAR

STARTCHAR mu
ENCODING 181
SWIDTH 552 0
DWIDTH 7 0
BBX 7 9 0 -3
BITMAP
22
44
44
44
4C
7C
80
80
80
ENDCHAR

STARTCHAR paragraph
ENCODING 182
SWIDTH 542 0
DWIDTH 7 0
BBX 7 12 1 -3
BITMAP
7E
F4
E4
E4
E8
28
28
48
48
50
50
50
ENDCHAR

STARTCHAR periodcentered
ENCODING 183
SWIDTH 292 0
DWIDTH 4 0
BBX 2 1 1 3
BITMAP
C0
ENDCHAR

STARTCHAR cedilla
ENCODING 184
SWIDTH 333 0
DWIDTH 4 0
BBX 2 2 1 -3
BITMAP
40
C0
ENDCHAR

STARTCHAR onesuperior
ENCODING 185
SWIDTH 323 0
DWIDTH 4 0
BBX 3 5 -4 4
BITMAP
60
40
40
40
C0
ENDCHAR

STARTCHAR ordmasculine
ENCODING 186
SWIDTH 365 0
DWIDTH 4 0
BBX 4 4 1 5
BITMAP
60
90
90
E0
ENDCHAR

STARTCHAR guillemotright
ENCODING 187
SWIDTH 458 0
DWIDTH 5 0
BBX 6 6 1 0
BITMAP
2C
58
B0
90
D0
50
ENDCHAR

STARTCHAR onequarter
ENCODING 188
SWIDTH 1000 0
DWIDTH 12 0
BBX 11 9 2 0
BITMAP
6040
4080
4100
4200
C420
0860
10E0
20E0
6060
ENDCHAR

STARTCHAR onehalf
ENCODING 189
SWIDTH 1000 0
DWIDTH 12 0
BBX 11 9 2 0
BITMAP
6040
4080
4100
4200
C460
0860
1060
20E0
60E0
ENDCHAR

STARTCHAR threequarters
ENCODING 190
SWIDTH 1000 0
DWIDTH 12 0
BBX 11 9 2 0
BITMAP
E040
2080
6100
2200
E420
0860
10E0
20E0
6060
ENDCHAR

STARTCHAR questiondown
ENCODING 191
SWIDTH 458 0
DWIDTH 5 0
BBX 5 9 0 -3
BITMAP
18
00
10
10
60
C0
80
90
70
ENDCHAR

STARTCHAR Agrave
ENCODING 192
SWIDTH 646 0
DWIDTH 8 0
BBX 8 12 0 0
BITMAP
0C
02
00
0F
0A
0A
12
12
3E
22
42
E7
ENDCHAR

STARTCHAR Aacute
ENCODING 193
SWIDTH 646 0
DWIDTH 8 0
BBX 8 12 0 0
BITMAP
03
04
00
0F
0A
0A
12
12
3E
22
42
E7
ENDCHAR

STARTCHAR Acircumflex
ENCODING 194
SWIDTH 646 0
DWIDTH 8 0
BBX 8 12 0 0
BITMAP
06
0B
00
0F
0A
0A
12
12
3E
22
42
E7
ENDCHAR

STARTCHAR Atilde
ENCODING 195
SWIDTH 646 0
DWIDTH 8 0
BBX 8 12 0 0
BITMAP
0D
0B
00
0F
0A
0A
12
12
3E
22
42
E7
ENDCHAR

STARTCHAR Adieresis
ENCODING 196
SWIDTH 646 0
DWIDTH 8 0
BBX 8 11 0 0
BITMAP
0A
00
0F
0A
0A
12
12
3E
22
42
E7
ENDCHAR

STARTCHAR Aring
ENCODING 197
SWIDTH 646 0
DWIDTH 8 0
BBX 8 13 0 0
BITMAP
0E
0A
0E
00
0F
0A
0A
12
12
3E
22
42
E7
ENDCHAR

STARTCHAR AE
ENCODING 198
SWIDTH 969 0
DWIDTH 12 0
BBX 13 9 0 0
BITMAP
07F8
0710
0510
0900
1FC0
1200
2220
6220
E7E0
ENDCHAR

STARTCHAR Ccedilla
ENCODING 199
SWIDTH 719 0
DWIDTH 9 0
BBX 9 11 1 -2
BITMAP
1E80
2100
4000
C000
8000
8000
8200
4600
3800
1000
3000
ENDCHAR

STARTCHAR Egrave
ENCODING 200
SWIDTH 573 0
DWIDTH 7 0
BBX 8 12 0 0
BITMAP
18
04
00
3F
22
22
20
3C
20
46
44
FC
ENDCHAR

STARTCHAR Eacute
ENCODING 201
SWIDTH 573 0
DWIDTH 7 0
BBX 8 12 0 0
BITMAP
06
08
00
3F
22
22
20
3C
20
46
44
FC
ENDCHAR

STARTCHAR Ecircumflex
ENCODING 202
SWIDTH 573 0
DWIDTH 7 0
BBX 8 12 0 0
BITMAP
0C
16
00
3F
22
22
20
3C
20
46
44
FC
ENDCHAR

STARTCHAR Edieresis
ENCODING 203
SWIDTH 573 0
DWIDTH 7 0
BBX 8 11 0 0
BITMAP
14
00
3F
22
22
20
3C
20
46
44
FC
ENDCHAR

STARTCHAR Igrave
ENCODING 204
SWIDTH 292 0
DWIDTH 4 0
BBX 4 12 0 0
BITMAP
60
10
00
30
20
20
20
20
60
40
40
E0
ENDCHAR

STARTCHAR Iacute
ENCODING 205
SWIDTH 292 0
DWIDTH 4 0
BBX 5 12 0 0
BITMAP
18
20
00
30
20
20
20
20
60
40
40
E0
ENDCHAR

STARTCHAR Icircumflex
ENCODING 206
SWIDTH 292 0
DWIDTH 4 0
BBX 5 12 0 0
BITMAP
30
58
00
30
20
20
20
20
60
40
40
E0
ENDCHAR

STARTCHAR Idieresis
ENCODING 207
SWIDTH 292 0
DWIDTH 4 0
BBX 5 11 0 0
BITMAP
28
00
30
20
20
20
20
60
40
40
E0
ENDCHAR

STARTCHAR Eth
ENCODING 208
SWIDTH 708 0
DWIDTH 8 0
BBX 8 9 0 0
BITMAP
3E
23
21
21
F9
21
43
46
FC
ENDCHAR

STARTCHAR Ntilde
ENCODING 209
SWIDTH 698 0
DWIDTH 8 0
BBX 10 12 0 0
BITMAP
0D00
0B00
0000
31C0
2900
2900
2900
2900
2500
4600
4600
E200
ENDCHAR

STARTCHAR Ograve
ENCODING 210
SWIDTH 781 0
DWIDTH 9 0
BBX 8 12 1 0
BITMAP
18
04
00
1E
23
41
C1
81
81
83
46
38
ENDCHAR

STARTCHAR Oacute
ENCODING 211
SWIDTH 781 0
DWIDTH 9 0
BBX 8 12 1 0
BITMAP
06
08
00
1E
23
41
C1
81
81
83
46
38
ENDCHAR

STARTCHAR Ocircumflex
ENCODING 212
SWIDTH 781 0
DWIDTH 9 0
BBX 8 12 1 0
BITMAP
0C
16
00
1E
23
41
C1
81
81
83
46
38
ENDCHAR

STARTCHAR Otilde
ENCODING 213
SWIDTH 781 0
DWIDTH 9 0
BBX 8 12 1 0
BITMAP
0D
0B
00
1E
23
41
C1
81
81
83
46
38
ENDCHAR

STARTCHAR Odieresis
ENCODING 214
SWIDTH 781 0
DWIDTH 9 0
BBX 8 11 1 0
BITMAP
0A
00
1E
23
41
C1
81
81
83
46
38
ENDCHAR

STARTCHAR multiply
ENCODING 215
SWIDTH 668 0
DWIDTH 8 0
BBX 6 5 1 1
BITMAP
84
78
30
78
84
ENDCHAR

STARTCHAR Oslash
ENCODING 216
SWIDTH 781 0
DWIDTH 9 0
BBX 8 9 1 0
BITMAP
1F
23
45
C9
91
B1
A3
46
B8
ENDCHAR

STARTCHAR Ugrave
ENCODING 217
SWIDTH 635 0
DWIDTH 8 0
BBX 8 12 1 0
BITMAP
30
08
00
E7
44
44
44
44
84
88
88
70
ENDCHAR

STARTCHAR Uacute
ENCODING 218
SWIDTH 635 0
DWIDTH 8 0
BBX 8 12 1 0
BITMAP
0C
10
00
E7
44
44
44
44
84
88
88
70
ENDCHAR

STARTCHAR Ucircumflex
ENCODING 219
SWIDTH 635 0
DWIDTH 8 0
BBX 8 12 1 0
BITMAP
18
2C
00
E7
44
44
44
44
84
88
88
70
ENDCHAR

STARTCHAR Udieresis
ENCODING 220
SWIDTH 635 0
DWIDTH 8 0
BBX 8 11 1 0
BITMAP
14
00
E7
44
44
44
44
84
88
88
70
ENDCHAR

STARTCHAR Yacute
ENCODING 221
SWIDTH 573 0
DWIDTH 7 0
BBX 7 12 1 0
BITMAP
0C
10
00
EE
44
48
30
30
20
20
20
E0
ENDCHAR

STARTCHAR Thorn
ENCODING 222
SWIDTH 542 0
DWIDTH 7 0
BBX 7 9 0 0
BITMAP
38
30
3C
26
22
24
7C
40
E0
ENDCHAR

STARTCHAR germandbls
ENCODING 223
SWIDTH 615 0
DWIDTH 7 0
BBX 7 9 0 0
BITMAP
1C
32
22
22
2C
42
42
46
FC
ENDCHAR

STARTCHAR agrave
ENCODING 224
SWIDTH 531 0
DWIDTH 6 0
BBX 5 9 1 0
BITMAP
30
08
00
78
08
78
88
98
78
ENDCHAR

STARTCHAR aacute
ENCODING 225
SWIDTH 531 0
DWIDTH 6 0
BBX 6 9 1 0
BITMAP
0C
10
00
78
08
78
88
98
78
ENDCHAR

STARTCHAR acircumflex
ENCODING 226
SWIDTH 531 0
DWIDTH 6 0
BBX 6 9 1 0
BITMAP
18
2C
00
78
08
78
88
98
78
ENDCHAR

STARTCHAR atilde
ENCODING 227
SWIDTH 531 0
DWIDTH 6 0
BBX 6 9 1 0
BITMAP
34
2C
00
78
08
78
88
98
78
ENDCHAR

STARTCHAR adieresis
ENCODING 228
SWIDTH 531 0
DWIDTH 6 0
BBX 5 8 1 0
BITMAP
28
00
78
08
78
88
98
78
ENDCHAR

STARTCHAR aring
ENCODING 229
SWIDTH 531 0
DWIDTH 6 0
BBX 5 10 1 0
BITMAP
38
28
38
00
78
08
78
88
98
78
ENDCHAR

STARTCHAR ae
ENCODING 230
SWIDTH 865 0
DWIDTH 10 0
BBX 10 6 1 0
BITMAP
7B80
0C80
7FC0
8800
9800
7780
ENDCHAR

STARTCHAR ccedilla
ENCODING 231
SWIDTH 500 0
DWIDTH 6 0
BBX 6 8 1 -2
BITMAP
3C
48
80
80
88
70
20
60
ENDCHAR

STARTCHAR egrave
ENCODING 232
SWIDTH 552 0
DWIDTH 7 0
BBX 6 9 1 0
BITMAP
30
08
00
38
44
FC
80
88
70
ENDCHAR

STARTCHAR eacute
ENCODING 233
SWIDTH 552 0
DWIDTH 7 0
BBX 6 9 1 0
BITMAP
0C
10
00
38
44
FC
80
88
70
ENDCHAR

STARTCHAR ecircumflex
ENCODING 234
SWIDTH 552 0
DWIDTH 7 0
BBX 6 9 1 0
BITMAP
18
2C
00
38
44
FC
80
88
70
ENDCHAR

STARTCHAR edieresis
ENCODING 235
SWIDTH 552 0
DWIDTH 7 0
BBX 6 8 1 0
BITMAP
28
00
38
44
FC
80
88
70
ENDCHAR

STARTCHAR igrave
ENCODING 236
SWIDTH 281 0
DWIDTH 3 0
BBX 4 9 0 0
BITMAP
60
10
00
60
20
40
40
40
E0
ENDCHAR

STARTCHAR iacute
ENCODING 237
SWIDTH 281 0
DWIDTH 3 0
BBX 5 9 0 0
BITMAP
18
20
00
60
20
40
40
40
E0
ENDCHAR

STARTCHAR icircumflex
ENCODING 238
SWIDTH 281 0
DWIDTH 3 0
BBX 5 9 0 0
BITMAP
30
58
00
60
20
40
40
40
E0
ENDCHAR

STARTCHAR idieresis
ENCODING 239
SWIDTH 281 0
DWIDTH 3 0
BBX 4 8 0 0
BITMAP
50
00
60
20
40
40
40
E0
ENDCHAR

STARTCHAR eth
ENCODING 240
SWIDTH 635 0
DWIDTH 8 0
BBX 6 9 1 0
BITMAP
14
38
14
3C
4C
84
84
88
70
ENDCHAR

STARTCHAR ntilde
ENCODING 241
SWIDTH 552 0
DWIDTH 7 0
BBX 7 9 0 0
BITMAP
1A
16
00
7C
24
44
44
48
EC
ENDCHAR

STARTCHAR ograve
ENCODING 242
SWIDTH 563 0
DWIDTH 7 0
BBX 6 9 1 0
BITMAP
30
08
00
38
4C
84
84
88
70
ENDCHAR

STARTCHAR oacute
ENCODING 243
SWIDTH 563 0
DWIDTH 7 0
BBX 6 9 1 0
BITMAP
0C
10
00
38
4C
84
84
88
70
ENDCHAR

STARTCHAR ocircumflex
ENCODING 244
SWIDTH 563 0
DWIDTH 7 0
BBX 6 9 1 0
BITMAP
18
2C
00
38
4C
84
84
88
70
ENDCHAR

STARTCHAR otilde
ENCODING 245
SWIDTH 563 0
DWIDTH 7 0
BBX 6 9 1 0
BITMAP
34
2C
00
38
4C
84
84
88
70
ENDCHAR

STARTCHAR odieresis
ENCODING 246
SWIDTH 563 0
DWIDTH 7 0
BBX 6 8 1 0
BITMAP
28
00
38
4C
84
84
88
70
ENDCHAR

STARTCHAR divide
ENCODING 247
SWIDTH 668 0
DWIDTH 8 0
BBX 6 7 1 1
BITMAP
10
00
00
FC
00
00
10
ENDCHAR

STARTCHAR oslash
ENCODING 248
SWIDTH 563 0
DWIDTH 7 0
BBX 6 6 1 0
BITMAP
3C
4C
94
A4
C8
F0
ENDCHAR

STARTCHAR ugrave
ENCODING 249
SWIDTH 552 0
DWIDTH 7 0
BBX 5 9 1 0
BITMAP
30
08
00
D8
48
88
88
90
F8
ENDCHAR

STARTCHAR uacute
ENCODING 250
SWIDTH 552 0
DWIDTH 7 0
BBX 6 9 1 0
BITMAP
0C
10
00
D8
48
88
88
90
F8
ENDCHAR

STARTCHAR ucircumflex
ENCODING 251
SWIDTH 552 0
DWIDTH 7 0
BBX 6 9 1 0
BITMAP
18
2C
00
D8
48
88
88
90
F8
ENDCHAR

STARTCHAR udieresis
ENCODING 252
SWIDTH 552 0
DWIDTH 7 0
BBX 5 8 1 0
BITMAP
28
00
D8
48
88
88
90
F8
ENDCHAR

STARTCHAR yacute
ENCODING 253
SWIDTH 510 0
DWIDTH 6 0
BBX 7 12 0 -3
BITMAP
06
08
00
36
24
24
28
30
30
20
60
C0
ENDCHAR

STARTCHAR thorn
ENCODING 254
SWIDTH 604 0
DWIDTH 7 0
BBX 8 12 0 -3
BITMAP
30
10
10
2E
33
21
23
22
5C
40
40
E0
ENDCHAR

STARTCHAR ydieresis
ENCODING 255
SWIDTH 510 0
DWIDTH 6 0
BBX 7 11 0 -3
BITMAP
14
00
36
24
24
28
30
30
20
60
C0
ENDCHAR
ENDFONT
